#define rain_width 48
#define rain_height 47
static unsigned char rain_bits[] = {
   0x00, 0x80, 0x3f, 0x00, 0x00, 0x00, 0x00, 0xf0, 0xff, 0x00, 0x00, 0x00,
   0x00, 0xfc, 0xff, 0x03, 0x00, 0x00, 0x00, 0xfe, 0xff, 0x07, 0x00, 0x00,
   0x00, 0x3f, 0xc0, 0xff, 0x01, 0x00, 0x80, 0x0f, 0x00, 0xff, 0x07, 0x00,
   0x80, 0x07, 0x00, 0xfc, 0x0f, 0x00, 0xc0, 0x03, 0x00, 0x80, 0x1f, 0x00,
   0xe0, 0x01, 0x00, 0x00, 0x3e, 0x00, 0xe0, 0x01, 0x00, 0x00, 0x7c, 0x00,
   0xe0, 0x00, 0x00, 0x00, 0x78, 0x00, 0xe0, 0x00, 0x00, 0x00, 0xf8, 0x00,
   0xf0, 0x00, 0x00, 0x00, 0xf0, 0x0f, 0xf0, 0x00, 0x00, 0x00, 0xf0, 0x1f,
   0xfc, 0x00, 0x00, 0x00, 0xf0, 0x3f, 0x7c, 0x00, 0x00, 0x00, 0x00, 0x7c,
   0x1e, 0x00, 0x00, 0x00, 0x00, 0x78, 0x1e, 0x00, 0x00, 0x00, 0x00, 0xf0,
   0x0f, 0x00, 0x00, 0x00, 0x00, 0xf0, 0x0f, 0x00, 0x00, 0x00, 0x00, 0xf0,
   0x0f, 0x00, 0x00, 0x00, 0x00, 0xf0, 0x0f, 0x00, 0x00, 0x00, 0x00, 0xf0,
   0x1e, 0x00, 0x00, 0x00, 0x00, 0x70, 0x1e, 0x00, 0x02, 0x03, 0x01, 0x78,
   0x7c, 0x00, 0x87, 0x87, 0x03, 0x3c, 0xfc, 0x83, 0x87, 0x87, 0xc3, 0x3f,
   0xf8, 0xc7, 0xc3, 0xc3, 0xc3, 0x0f, 0xe0, 0xc3, 0xc3, 0xe1, 0xc1, 0x07,
   0x00, 0xc0, 0xc1, 0xe1, 0x01, 0x00, 0x00, 0x80, 0xc0, 0xc0, 0x00, 0x00,
   0x00, 0x00, 0x00, 0x00, 0x00, 0x00, 0x00, 0x00, 0x00, 0x00, 0x00, 0x00,
   0x00, 0x38, 0x18, 0x1c, 0x00, 0x00, 0x00, 0x3c, 0x3c, 0x1c, 0x00, 0x00,
   0x00, 0x1c, 0x3c, 0x1e, 0x00, 0x00, 0x00, 0x1e, 0x1e, 0x1e, 0x00, 0x00,
   0x00, 0x0e, 0x0e, 0x0f, 0x00, 0x00, 0x00, 0x0e, 0x0e, 0x06, 0x00, 0x00,
   0x00, 0x00, 0x00, 0x00, 0x00, 0x00, 0x00, 0x00, 0x00, 0x00, 0x00, 0x00,
   0x00, 0x80, 0x00, 0x00, 0x00, 0x00, 0x00, 0xe0, 0x01, 0x00, 0x00, 0x00,
   0x00, 0xe0, 0x01, 0x00, 0x00, 0x00, 0x00, 0xf0, 0x00, 0x00, 0x00, 0x00,
   0x00, 0xf0, 0x00, 0x00, 0x00, 0x00, 0x00, 0x70, 0x00, 0x00, 0x00, 0x00,
   0x00, 0x30, 0x00, 0x00, 0x00, 0x00 };
