#define sunny_width 48
#define sunny_height 49
static unsigned char sunny_bits[] = {
   0x00, 0x00, 0x00, 0x03, 0x00, 0x00, 0x00, 0x00, 0x80, 0x07, 0x00, 0x00,
   0x00, 0x00, 0xc0, 0x07, 0x00, 0x00, 0x00, 0x00, 0xc0, 0x07, 0x00, 0x00,
   0x00, 0x00, 0xc0, 0x07, 0x00, 0x00, 0x00, 0x00, 0xc0, 0x07, 0x00, 0x00,
   0x00, 0x00, 0xc0, 0x07, 0x00, 0x00, 0x80, 0x07, 0x80, 0x07, 0x80, 0x03,
   0x80, 0x0f, 0x80, 0x03, 0xc0, 0x07, 0x80, 0x1f, 0x00, 0x00, 0xe0, 0x07,
   0x00, 0x3f, 0x00, 0x00, 0xf0, 0x03, 0x00, 0x3e, 0x00, 0x00, 0xf8, 0x01,
   0x00, 0x3c, 0xf0, 0x3f, 0xf8, 0x00, 0x00, 0x38, 0xfc, 0xff, 0x70, 0x00,
   0x00, 0x00, 0xff, 0xff, 0x01, 0x00, 0x00, 0x80, 0xff, 0xff, 0x03, 0x00,
   0x00, 0x80, 0x3f, 0xf0, 0x07, 0x00, 0x00, 0xc0, 0x0f, 0xc0, 0x0f, 0x00,
   0x00, 0xe0, 0x07, 0x80, 0x0f, 0x00, 0x00, 0xe0, 0x03, 0x00, 0x1f, 0x00,
   0x00, 0xf0, 0x01, 0x00, 0x1e, 0x00, 0x00, 0xf0, 0x00, 0x00, 0x1e, 0x00,
   0xfe, 0xf0, 0x00, 0x00, 0x3e, 0x00, 0xff, 0xf1, 0x00, 0x00, 0xbc, 0x7f,
   0xff, 0xf1, 0x00, 0x00, 0xbc, 0xff, 0xfe, 0xf1, 0x00, 0x00, 0xbc, 0xff,
   0x00, 0xf0, 0x00, 0x00, 0x3c, 0x7f, 0x00, 0xf0, 0x00, 0x00, 0x3e, 0x00,
   0x00, 0xf0, 0x01, 0x00, 0x1e, 0x00, 0x00, 0xf0, 0x01, 0x00, 0x1f, 0x00,
   0x00, 0xe0, 0x03, 0x00, 0x1f, 0x00, 0x00, 0xe0, 0x07, 0x80, 0x0f, 0x00,
   0x00, 0xc0, 0x0f, 0xe0, 0x07, 0x00, 0x00, 0x80, 0x3f, 0xf0, 0x07, 0x00,
   0x00, 0x00, 0xff, 0xff, 0x03, 0x00, 0x00, 0x18, 0xfe, 0xff, 0x21, 0x00,
   0x00, 0x3c, 0xfc, 0x7f, 0x78, 0x00, 0x00, 0x3e, 0xf0, 0x1f, 0xf8, 0x00,
   0x00, 0x3f, 0x00, 0x00, 0xf8, 0x01, 0x80, 0x1f, 0x00, 0x00, 0xf0, 0x03,
   0x80, 0x0f, 0x80, 0x03, 0xe0, 0x07, 0x80, 0x07, 0xc0, 0x07, 0xc0, 0x07,
   0x00, 0x03, 0xc0, 0x07, 0x80, 0x03, 0x00, 0x00, 0xc0, 0x07, 0x00, 0x00,
   0x00, 0x00, 0xc0, 0x07, 0x00, 0x00, 0x00, 0x00, 0xc0, 0x07, 0x00, 0x00,
   0x00, 0x00, 0xc0, 0x07, 0x00, 0x00, 0x00, 0x00, 0x80, 0x07, 0x00, 0x00,
   0x00, 0x00, 0x00, 0x03, 0x00, 0x00 };
